<svg width="37" height="44" viewBox="0 0 37 44" fill="none" xmlns="http://www.w3.org/2000/svg">
<path d="M7.74755 4.8323C11.6134 0.966461 16.4917 0 18.4476 0V12.7181C16.9256 12.7181 16.2027 13.4438 16.0315 13.8066C8.85207 10.7691 5.21634 4.94736 4.2959 2.41615C5.12429 3.52068 6.94216 4.48714 7.74755 4.8323Z" fill="white"/>
<path d="M28.8911 4.8323C25.0253 0.966461 20.147 0 18.191 0V12.7181C19.7131 12.7181 20.436 13.4438 20.6072 13.8066C27.7866 10.7691 31.4223 4.94736 32.3428 2.41615C31.5144 3.52068 29.6965 4.48714 28.8911 4.8323Z" fill="white"/>
<path d="M9.98942 12.8249C11.0782 13.6458 13.5288 15.3841 14.6208 15.7695C12.5416 16.4209 8.70436 16.7439 9.98942 12.8249Z" fill="white"/>
<path d="M8.03552 11.1117C7.35024 10.5977 6.16169 8.95234 5.65308 8.19388C3.67602 10.1709 3.46119 14.0681 3.6009 15.7695C3.6009 28.6136 1.2003 34.6138 0 36.0084L5.08517 32.1231L8.5282 37.8089L12.5324 34.3273L18.3343 44V40.8127L16.4242 34.3273C14.8606 27.4332 10.0373 24.3653 7.82108 23.6932L12.5324 21.0163L12.6931 18.7944C6.33272 18.7944 6.9379 13.6726 8.03552 11.1117Z" fill="white"/>
<path d="M26.6458 12.8246C25.557 13.6455 23.1065 15.3837 22.0144 15.7692C24.0937 16.4206 27.9309 16.7436 26.6458 12.8246Z" fill="white"/>
<path d="M28.5997 11.1114C29.285 10.5974 30.4736 8.95203 30.9822 8.19357C32.9592 10.1706 33.1741 14.0678 33.0344 15.7692C33.0344 28.6133 35.435 34.6135 36.6353 36.0081L31.5501 32.1228L28.1071 37.8086L24.1028 34.327L18.3009 43.9997V40.8124L20.211 34.327C21.7746 27.4329 26.598 24.365 28.8142 23.6929L24.1028 21.016L23.9422 18.7941C30.3025 18.7941 29.6974 13.6723 28.5997 11.1114Z" fill="white"/>
<path d="M15.2165 19.4606C15.2165 16.9216 17.3814 15.6717 18.4638 15.3642V33.0784C18.4638 28.4432 14.6751 24.9225 12.7808 23.7415L15.2165 22.2284V19.4606Z" fill="white"/>
<path d="M21.7093 19.4608C21.7093 16.9218 19.5444 15.6719 18.4619 15.3644V33.0787C18.4619 28.4434 22.2507 24.9227 24.145 23.7418L21.7093 22.2287V19.4608Z" fill="white"/>
</svg>
