<svg width="40" height="32" viewBox="0 0 40 32" fill="none" xmlns="http://www.w3.org/2000/svg">
<path fill-rule="evenodd" clip-rule="evenodd" d="M35.8567 0.218922C36.3485 0.0250783 36.8868 -0.0417771 37.4156 0.0253136C37.9443 0.0924042 38.4442 0.290989 38.8632 0.600397C39.2822 0.909806 39.605 1.31873 39.798 1.7846C39.9909 2.25047 40.047 2.75626 39.9604 3.24933L35.4467 28.8885C35.0089 31.3617 32.1112 32.7799 29.6891 31.548C27.6631 30.5174 24.654 28.9295 21.9474 27.2727C20.5941 26.4433 16.4485 23.7875 16.958 21.8977C17.3959 20.2819 24.3615 14.2099 28.3418 10.5998C29.9041 9.18155 29.1916 8.36337 27.3467 9.66798C22.7653 12.9071 15.4097 17.8329 12.9777 19.2195C10.8323 20.4421 9.7138 20.6509 8.3764 20.4421C5.93646 20.0619 3.67363 19.473 1.82675 18.7555C-0.66892 17.7863 -0.54752 14.5733 1.82476 13.6377L35.8567 0.218922Z" fill="white"/>
</svg>
